<?xml version="1.0" encoding="UTF-8" standalone="no"?>
<!DOCTYPE svg PUBLIC "-//W3C//DTD SVG 1.1//EN"
 "http://www.w3.org/Graphics/SVG/1.1/DTD/svg11.dtd">
<!-- Generated by graphviz version 2.43.0 (0)
 -->
<!-- Title: G Pages: 1 -->
<svg width="790pt" height="417pt"
 viewBox="0.00 0.00 790.20 416.70" xmlns="http://www.w3.org/2000/svg" xmlns:xlink="http://www.w3.org/1999/xlink">
<g id="graph0" class="graph" transform="scale(1 1) rotate(0) translate(21.6 395.1)">
<title>G</title>
<polygon fill="#111111" stroke="transparent" points="-21.6,21.6 -21.6,-395.1 768.6,-395.1 768.6,21.6 -21.6,21.6"/>
<!-- Root.tsx -->
<g id="node1" class="node">
<title>Root.tsx</title>
<path fill="none" stroke="#c6c5fe" d="M192.83,-226C192.83,-226 142.17,-226 142.17,-226 138.33,-226 134.5,-222.17 134.5,-218.33 134.5,-218.33 134.5,-210.67 134.5,-210.67 134.5,-206.83 138.33,-203 142.17,-203 142.17,-203 192.83,-203 192.83,-203 196.67,-203 200.5,-206.83 200.5,-210.67 200.5,-210.67 200.5,-218.33 200.5,-218.33 200.5,-222.17 196.67,-226 192.83,-226"/>
<text text-anchor="middle" x="167.5" y="-210.8" font-family="Arial" font-size="14.00" fill="#c6c5fe">Root.tsx</text>
</g>
<!-- manager/hooks.ts -->
<g id="node2" class="node">
<title>manager/hooks.ts</title>
<path fill="none" stroke="#c6c5fe" d="M568.33,-246C568.33,-246 458.67,-246 458.67,-246 454.83,-246 451,-242.17 451,-238.33 451,-238.33 451,-230.67 451,-230.67 451,-226.83 454.83,-223 458.67,-223 458.67,-223 568.33,-223 568.33,-223 572.17,-223 576,-226.83 576,-230.67 576,-230.67 576,-238.33 576,-238.33 576,-242.17 572.17,-246 568.33,-246"/>
<text text-anchor="middle" x="513.5" y="-230.8" font-family="Arial" font-size="14.00" fill="#c6c5fe">manager/hooks.ts</text>
</g>
<!-- Root.tsx&#45;&gt;manager/hooks.ts -->
<g id="edge1" class="edge">
<title>Root.tsx&#45;&gt;manager/hooks.ts</title>
<path fill="none" stroke="#757575" d="M182.1,-226C200.87,-241.05 236.47,-266.67 272,-276.5 333.26,-293.44 352.75,-289.34 415,-276.5 439.09,-271.53 464.56,-260.33 483.42,-250.74"/>
<polygon fill="#757575" stroke="#757575" points="485.14,-253.8 492.38,-246.06 481.9,-247.59 485.14,-253.8"/>
</g>
<!-- one/ServiceOne.tsx -->
<g id="node3" class="node">
<title>one/ServiceOne.tsx</title>
<path fill="none" stroke="#c6c5fe" d="M403.33,-267C403.33,-267 283.67,-267 283.67,-267 279.83,-267 276,-263.17 276,-259.33 276,-259.33 276,-251.67 276,-251.67 276,-247.83 279.83,-244 283.67,-244 283.67,-244 403.33,-244 403.33,-244 407.17,-244 411,-247.83 411,-251.67 411,-251.67 411,-259.33 411,-259.33 411,-263.17 407.17,-267 403.33,-267"/>
<text text-anchor="middle" x="343.5" y="-251.8" font-family="Arial" font-size="14.00" fill="#c6c5fe">one/ServiceOne.tsx</text>
</g>
<!-- Root.tsx&#45;&gt;one/ServiceOne.tsx -->
<g id="edge2" class="edge">
<title>Root.tsx&#45;&gt;one/ServiceOne.tsx</title>
<path fill="none" stroke="#757575" d="M200.82,-222.12C224.02,-227.58 255.93,-235.1 283.6,-241.62"/>
<polygon fill="#757575" stroke="#757575" points="283.04,-245.09 293.58,-243.97 284.65,-238.27 283.04,-245.09"/>
</g>
<!-- plugin/PluginTwo.tsx -->
<g id="node4" class="node">
<title>plugin/PluginTwo.tsx</title>
<path fill="none" stroke="#c6c5fe" d="M405.83,-226C405.83,-226 281.17,-226 281.17,-226 277.33,-226 273.5,-222.17 273.5,-218.33 273.5,-218.33 273.5,-210.67 273.5,-210.67 273.5,-206.83 277.33,-203 281.17,-203 281.17,-203 405.83,-203 405.83,-203 409.67,-203 413.5,-206.83 413.5,-210.67 413.5,-210.67 413.5,-218.33 413.5,-218.33 413.5,-222.17 409.67,-226 405.83,-226"/>
<text text-anchor="middle" x="343.5" y="-210.8" font-family="Arial" font-size="14.00" fill="#c6c5fe">plugin/PluginTwo.tsx</text>
</g>
<!-- Root.tsx&#45;&gt;plugin/PluginTwo.tsx -->
<g id="edge3" class="edge">
<title>Root.tsx&#45;&gt;plugin/PluginTwo.tsx</title>
<path fill="none" stroke="#757575" d="M200.82,-214.5C218.46,-214.5 241.15,-214.5 263.17,-214.5"/>
<polygon fill="#757575" stroke="#757575" points="263.23,-218 273.23,-214.5 263.23,-211 263.23,-218"/>
</g>
<!-- plugin/pluginOne.tsx -->
<g id="node5" class="node">
<title>plugin/pluginOne.tsx</title>
<path fill="none" stroke="#c6c5fe" d="M405.83,-185C405.83,-185 281.17,-185 281.17,-185 277.33,-185 273.5,-181.17 273.5,-177.33 273.5,-177.33 273.5,-169.67 273.5,-169.67 273.5,-165.83 277.33,-162 281.17,-162 281.17,-162 405.83,-162 405.83,-162 409.67,-162 413.5,-165.83 413.5,-169.67 413.5,-169.67 413.5,-177.33 413.5,-177.33 413.5,-181.17 409.67,-185 405.83,-185"/>
<text text-anchor="middle" x="343.5" y="-169.8" font-family="Arial" font-size="14.00" fill="#c6c5fe">plugin/pluginOne.tsx</text>
</g>
<!-- Root.tsx&#45;&gt;plugin/pluginOne.tsx -->
<g id="edge4" class="edge">
<title>Root.tsx&#45;&gt;plugin/pluginOne.tsx</title>
<path fill="none" stroke="#757575" d="M200.82,-206.88C224.02,-201.42 255.93,-193.9 283.6,-187.38"/>
<polygon fill="#757575" stroke="#757575" points="284.65,-190.73 293.58,-185.03 283.04,-183.91 284.65,-190.73"/>
</g>
<!-- two/ServiceThree.tsx -->
<g id="node6" class="node">
<title>two/ServiceThree.tsx</title>
<path fill="none" stroke="#c6c5fe" d="M407.33,-144C407.33,-144 279.67,-144 279.67,-144 275.83,-144 272,-140.17 272,-136.33 272,-136.33 272,-128.67 272,-128.67 272,-124.83 275.83,-121 279.67,-121 279.67,-121 407.33,-121 407.33,-121 411.17,-121 415,-124.83 415,-128.67 415,-128.67 415,-136.33 415,-136.33 415,-140.17 411.17,-144 407.33,-144"/>
<text text-anchor="middle" x="343.5" y="-128.8" font-family="Arial" font-size="14.00" fill="#c6c5fe">two/ServiceThree.tsx</text>
</g>
<!-- Root.tsx&#45;&gt;two/ServiceThree.tsx -->
<g id="edge5" class="edge">
<title>Root.tsx&#45;&gt;two/ServiceThree.tsx</title>
<path fill="none" stroke="#757575" d="M184.63,-202.99C204.4,-189.33 239.32,-166.63 272,-152.5 276.37,-150.61 280.97,-148.85 285.63,-147.21"/>
<polygon fill="#757575" stroke="#757575" points="286.85,-150.5 295.25,-144.04 284.66,-143.85 286.85,-150.5"/>
</g>
<!-- two/ServiceTwo.tsx -->
<g id="node7" class="node">
<title>two/ServiceTwo.tsx</title>
<path fill="none" stroke="#c6c5fe" d="M401.83,-347C401.83,-347 285.17,-347 285.17,-347 281.33,-347 277.5,-343.17 277.5,-339.33 277.5,-339.33 277.5,-331.67 277.5,-331.67 277.5,-327.83 281.33,-324 285.17,-324 285.17,-324 401.83,-324 401.83,-324 405.67,-324 409.5,-327.83 409.5,-331.67 409.5,-331.67 409.5,-339.33 409.5,-339.33 409.5,-343.17 405.67,-347 401.83,-347"/>
<text text-anchor="middle" x="343.5" y="-331.8" font-family="Arial" font-size="14.00" fill="#c6c5fe">two/ServiceTwo.tsx</text>
</g>
<!-- Root.tsx&#45;&gt;two/ServiceTwo.tsx -->
<g id="edge6" class="edge">
<title>Root.tsx&#45;&gt;two/ServiceTwo.tsx</title>
<path fill="none" stroke="#757575" d="M178.52,-226.31C195.79,-246 233.07,-285.74 272,-309.5 278.66,-313.56 286.05,-317.14 293.46,-320.25"/>
<polygon fill="#757575" stroke="#757575" points="292.24,-323.53 302.82,-323.93 294.8,-317.01 292.24,-323.53"/>
</g>
<!-- bus/message.ts -->
<g id="node8" class="node">
<title>bus/message.ts</title>
<path fill="none" stroke="#cfffac" d="M727.83,-104C727.83,-104 631.17,-104 631.17,-104 627.33,-104 623.5,-100.17 623.5,-96.33 623.5,-96.33 623.5,-88.67 623.5,-88.67 623.5,-84.83 627.33,-81 631.17,-81 631.17,-81 727.83,-81 727.83,-81 731.67,-81 735.5,-84.83 735.5,-88.67 735.5,-88.67 735.5,-96.33 735.5,-96.33 735.5,-100.17 731.67,-104 727.83,-104"/>
<text text-anchor="middle" x="679.5" y="-88.8" font-family="Arial" font-size="14.00" fill="#cfffac">bus/message.ts</text>
</g>
<!-- manager/hooks.ts&#45;&gt;bus/message.ts -->
<g id="edge14" class="edge">
<title>manager/hooks.ts&#45;&gt;bus/message.ts</title>
<path fill="none" stroke="#757575" d="M527.92,-222.88C556.39,-198.23 623.03,-140.53 657.31,-110.85"/>
<polygon fill="#757575" stroke="#757575" points="659.62,-113.47 664.89,-104.28 655.04,-108.18 659.62,-113.47"/>
</g>
<!-- bus/messageBus.ts -->
<g id="node9" class="node">
<title>bus/messageBus.ts</title>
<path fill="none" stroke="#cfffac" d="M739.33,-326C739.33,-326 619.67,-326 619.67,-326 615.83,-326 612,-322.17 612,-318.33 612,-318.33 612,-310.67 612,-310.67 612,-306.83 615.83,-303 619.67,-303 619.67,-303 739.33,-303 739.33,-303 743.17,-303 747,-306.83 747,-310.67 747,-310.67 747,-318.33 747,-318.33 747,-322.17 743.17,-326 739.33,-326"/>
<text text-anchor="middle" x="679.5" y="-310.8" font-family="Arial" font-size="14.00" fill="#cfffac">bus/messageBus.ts</text>
</g>
<!-- manager/hooks.ts&#45;&gt;bus/messageBus.ts -->
<g id="edge15" class="edge">
<title>manager/hooks.ts&#45;&gt;bus/messageBus.ts</title>
<path fill="none" stroke="#757575" d="M538.35,-246.13C566.61,-259.92 613.85,-282.96 645.58,-298.44"/>
<polygon fill="#757575" stroke="#757575" points="644.37,-301.74 654.89,-302.98 647.44,-295.45 644.37,-301.74"/>
</g>
<!-- one/ServiceOne.tsx&#45;&gt;manager/hooks.ts -->
<g id="edge16" class="edge">
<title>one/ServiceOne.tsx&#45;&gt;manager/hooks.ts</title>
<path fill="none" stroke="#757575" d="M411.38,-247.14C421.02,-245.93 430.98,-244.69 440.72,-243.47"/>
<polygon fill="#757575" stroke="#757575" points="441.27,-246.93 450.76,-242.22 440.4,-239.99 441.27,-246.93"/>
</g>
<!-- plugin/PluginTwo.tsx&#45;&gt;manager/hooks.ts -->
<g id="edge17" class="edge">
<title>plugin/PluginTwo.tsx&#45;&gt;manager/hooks.ts</title>
<path fill="none" stroke="#757575" d="M413.8,-222.75C422.73,-223.81 431.89,-224.9 440.86,-225.97"/>
<polygon fill="#757575" stroke="#757575" points="440.54,-229.46 450.88,-227.16 441.37,-222.51 440.54,-229.46"/>
</g>
<!-- plugin/pluginOne.tsx&#45;&gt;manager/hooks.ts -->
<g id="edge18" class="edge">
<title>plugin/pluginOne.tsx&#45;&gt;manager/hooks.ts</title>
<path fill="none" stroke="#757575" d="M388.38,-185.06C397.26,-187.64 406.48,-190.51 415,-193.5 436.25,-200.95 459.51,-210.67 477.98,-218.78"/>
<polygon fill="#757575" stroke="#757575" points="476.61,-222 487.17,-222.85 479.45,-215.6 476.61,-222"/>
</g>
<!-- two/ServiceThree.tsx&#45;&gt;manager/hooks.ts -->
<g id="edge19" class="edge">
<title>two/ServiceThree.tsx&#45;&gt;manager/hooks.ts</title>
<path fill="none" stroke="#757575" d="M395.2,-144.06C402.04,-146.43 408.82,-149.22 415,-152.5 446.28,-169.1 476.58,-197.02 494.88,-215.6"/>
<polygon fill="#757575" stroke="#757575" points="492.5,-218.16 501.96,-222.93 497.53,-213.3 492.5,-218.16"/>
</g>
<!-- two/ServiceTwo.tsx&#45;&gt;manager/hooks.ts -->
<g id="edge20" class="edge">
<title>two/ServiceTwo.tsx&#45;&gt;manager/hooks.ts</title>
<path fill="none" stroke="#757575" d="M382.39,-323.91C393.22,-319.96 404.84,-315.11 415,-309.5 443.99,-293.49 473.63,-269.36 492.5,-252.82"/>
<polygon fill="#757575" stroke="#757575" points="494.99,-255.29 500.13,-246.03 490.33,-250.06 494.99,-255.29"/>
</g>
<!-- index.ts -->
<g id="node10" class="node">
<title>index.ts</title>
<path fill="none" stroke="#c6c5fe" d="M55.33,-104C55.33,-104 7.67,-104 7.67,-104 3.83,-104 0,-100.17 0,-96.33 0,-96.33 0,-88.67 0,-88.67 0,-84.83 3.83,-81 7.67,-81 7.67,-81 55.33,-81 55.33,-81 59.17,-81 63,-84.83 63,-88.67 63,-88.67 63,-96.33 63,-96.33 63,-100.17 59.17,-104 55.33,-104"/>
<text text-anchor="middle" x="31.5" y="-88.8" font-family="Arial" font-size="14.00" fill="#c6c5fe">index.ts</text>
</g>
<!-- index.ts&#45;&gt;Root.tsx -->
<g id="edge7" class="edge">
<title>index.ts&#45;&gt;Root.tsx</title>
<path fill="none" stroke="#757575" d="M45.35,-104.2C68.6,-125.37 117.84,-170.2 145.86,-195.71"/>
<polygon fill="#757575" stroke="#757575" points="143.74,-198.51 153.49,-202.66 148.46,-193.34 143.74,-198.51"/>
</g>
<!-- index.ts&#45;&gt;bus/message.ts -->
<g id="edge8" class="edge">
<title>index.ts&#45;&gt;bus/message.ts</title>
<path fill="none" stroke="#757575" d="M63.22,-92.5C162.44,-92.5 475.79,-92.5 613.03,-92.5"/>
<polygon fill="#757575" stroke="#757575" points="613.39,-96 623.39,-92.5 613.39,-89 613.39,-96"/>
</g>
<!-- index.ts&#45;&gt;bus/messageBus.ts -->
<g id="edge9" class="edge">
<title>index.ts&#45;&gt;bus/messageBus.ts</title>
<path fill="none" stroke="#757575" d="M35.6,-104.01C43.02,-129.86 63.81,-193.54 99,-235.5 159.29,-307.39 182.51,-328.31 272,-356.5 401.04,-397.15 563.39,-353.94 637.82,-329.24"/>
<polygon fill="#757575" stroke="#757575" points="638.95,-332.56 647.31,-326.04 636.71,-325.92 638.95,-332.56"/>
</g>
<!-- manager/element.ts -->
<g id="node11" class="node">
<title>manager/element.ts</title>
<path fill="none" stroke="#c6c5fe" d="M228.33,-64C228.33,-64 106.67,-64 106.67,-64 102.83,-64 99,-60.17 99,-56.33 99,-56.33 99,-48.67 99,-48.67 99,-44.83 102.83,-41 106.67,-41 106.67,-41 228.33,-41 228.33,-41 232.17,-41 236,-44.83 236,-48.67 236,-48.67 236,-56.33 236,-56.33 236,-60.17 232.17,-64 228.33,-64"/>
<text text-anchor="middle" x="167.5" y="-48.8" font-family="Arial" font-size="14.00" fill="#c6c5fe">manager/element.ts</text>
</g>
<!-- index.ts&#45;&gt;manager/element.ts -->
<g id="edge10" class="edge">
<title>index.ts&#45;&gt;manager/element.ts</title>
<path fill="none" stroke="#757575" d="M63.24,-83.32C79.49,-78.47 99.8,-72.41 118.1,-66.95"/>
<polygon fill="#757575" stroke="#757575" points="119.15,-70.29 127.74,-64.07 117.15,-63.58 119.15,-70.29"/>
</g>
<!-- moduleRenderer.js -->
<g id="node12" class="node">
<title>moduleRenderer.js</title>
<path fill="none" stroke="#cfffac" d="M225.33,-23C225.33,-23 109.67,-23 109.67,-23 105.83,-23 102,-19.17 102,-15.33 102,-15.33 102,-7.67 102,-7.67 102,-3.83 105.83,0 109.67,0 109.67,0 225.33,0 225.33,0 229.17,0 233,-3.83 233,-7.67 233,-7.67 233,-15.33 233,-15.33 233,-19.17 229.17,-23 225.33,-23"/>
<text text-anchor="middle" x="167.5" y="-7.8" font-family="Arial" font-size="14.00" fill="#cfffac">moduleRenderer.js</text>
</g>
<!-- index.ts&#45;&gt;moduleRenderer.js -->
<g id="edge11" class="edge">
<title>index.ts&#45;&gt;moduleRenderer.js</title>
<path fill="none" stroke="#757575" d="M42.13,-80.92C54.1,-67.22 75.82,-44.62 99,-31.5 102.02,-29.79 105.19,-28.22 108.46,-26.77"/>
<polygon fill="#757575" stroke="#757575" points="109.85,-29.98 117.83,-23 107.24,-23.48 109.85,-29.98"/>
</g>
<!-- manager/element.ts&#45;&gt;bus/message.ts -->
<g id="edge12" class="edge">
<title>manager/element.ts&#45;&gt;bus/message.ts</title>
<path fill="none" stroke="#757575" d="M236.04,-55.32C316.97,-59.04 456.61,-66.55 576,-78.5 588.01,-79.7 600.77,-81.24 613.07,-82.85"/>
<polygon fill="#757575" stroke="#757575" points="612.89,-86.35 623.26,-84.21 613.82,-79.42 612.89,-86.35"/>
</g>
<!-- moduleOne.js -->
<g id="node13" class="node">
<title>moduleOne.js</title>
<path fill="none" stroke="#cfffac" d="M386.33,-26C386.33,-26 300.67,-26 300.67,-26 296.83,-26 293,-22.17 293,-18.33 293,-18.33 293,-10.67 293,-10.67 293,-6.83 296.83,-3 300.67,-3 300.67,-3 386.33,-3 386.33,-3 390.17,-3 394,-6.83 394,-10.67 394,-10.67 394,-18.33 394,-18.33 394,-22.17 390.17,-26 386.33,-26"/>
<text text-anchor="middle" x="343.5" y="-10.8" font-family="Arial" font-size="14.00" fill="#cfffac">moduleOne.js</text>
</g>
<!-- manager/element.ts&#45;&gt;moduleOne.js -->
<g id="edge13" class="edge">
<title>manager/element.ts&#45;&gt;moduleOne.js</title>
<path fill="none" stroke="#757575" d="M221.18,-41C240.69,-36.73 262.94,-31.88 283.01,-27.49"/>
<polygon fill="#757575" stroke="#757575" points="283.95,-30.87 292.98,-25.32 282.46,-24.03 283.95,-30.87"/>
</g>
</g>
</svg>
