<?xml version="1.0" encoding="UTF-8" standalone="no"?>
<!DOCTYPE svg PUBLIC "-//W3C//DTD SVG 1.1//EN"
 "http://www.w3.org/Graphics/SVG/1.1/DTD/svg11.dtd">
<!-- Generated by graphviz version 2.40.1 (20161225.0304)
 -->
<!-- Title: G Pages: 1 -->
<svg width="555pt" height="217pt"
 viewBox="0.00 0.00 555.20 217.15" xmlns="http://www.w3.org/2000/svg" xmlns:xlink="http://www.w3.org/1999/xlink">
<g id="graph0" class="graph" transform="scale(1 1) rotate(0) translate(21.6 195.5532)">
<title>G</title>
<polygon fill="#111111" stroke="transparent" points="-21.6,21.6 -21.6,-195.5532 533.6,-195.5532 533.6,21.6 -21.6,21.6"/>
<!-- element.js -->
<g id="node1" class="node">
<title>element.js</title>
<path fill="none" stroke="#c6c5fe" d="M352.3333,-173.9532C352.3333,-173.9532 284.6667,-173.9532 284.6667,-173.9532 280.8333,-173.9532 277,-170.1199 277,-166.2865 277,-166.2865 277,-158.6199 277,-158.6199 277,-154.7865 280.8333,-150.9532 284.6667,-150.9532 284.6667,-150.9532 352.3333,-150.9532 352.3333,-150.9532 356.1667,-150.9532 360,-154.7865 360,-158.6199 360,-158.6199 360,-166.2865 360,-166.2865 360,-170.1199 356.1667,-173.9532 352.3333,-173.9532"/>
<text text-anchor="middle" x="318.5" y="-158.7532" font-family="Arial" font-size="14.00" fill="#c6c5fe">element.js</text>
</g>
<!-- message.js -->
<g id="node2" class="node">
<title>message.js</title>
<path fill="none" stroke="#cfffac" d="M491.8333,-132.9532C491.8333,-132.9532 416.1667,-132.9532 416.1667,-132.9532 412.3333,-132.9532 408.5,-129.1199 408.5,-125.2865 408.5,-125.2865 408.5,-117.6199 408.5,-117.6199 408.5,-113.7865 412.3333,-109.9532 416.1667,-109.9532 416.1667,-109.9532 491.8333,-109.9532 491.8333,-109.9532 495.6667,-109.9532 499.5,-113.7865 499.5,-117.6199 499.5,-117.6199 499.5,-125.2865 499.5,-125.2865 499.5,-129.1199 495.6667,-132.9532 491.8333,-132.9532"/>
<text text-anchor="middle" x="454" y="-117.7532" font-family="Arial" font-size="14.00" fill="#cfffac">message.js</text>
</g>
<!-- element.js&#45;&gt;message.js -->
<g id="edge1" class="edge">
<title>element.js&#45;&gt;message.js</title>
<path fill="none" stroke="#757575" d="M356.6049,-150.9233C371.903,-146.2944 389.7132,-140.9053 405.8885,-136.0109"/>
<polygon fill="#757575" stroke="#757575" points="407.1539,-139.2848 415.7116,-133.0386 405.1265,-132.5848 407.1539,-139.2848"/>
</g>
<!-- moduleOne.js -->
<g id="node3" class="node">
<title>moduleOne.js</title>
<path fill="none" stroke="#cfffac" d="M499.8333,-173.9532C499.8333,-173.9532 408.1667,-173.9532 408.1667,-173.9532 404.3333,-173.9532 400.5,-170.1199 400.5,-166.2865 400.5,-166.2865 400.5,-158.6199 400.5,-158.6199 400.5,-154.7865 404.3333,-150.9532 408.1667,-150.9532 408.1667,-150.9532 499.8333,-150.9532 499.8333,-150.9532 503.6667,-150.9532 507.5,-154.7865 507.5,-158.6199 507.5,-158.6199 507.5,-166.2865 507.5,-166.2865 507.5,-170.1199 503.6667,-173.9532 499.8333,-173.9532"/>
<text text-anchor="middle" x="454" y="-158.7532" font-family="Arial" font-size="14.00" fill="#cfffac">moduleOne.js</text>
</g>
<!-- element.js&#45;&gt;moduleOne.js -->
<g id="edge2" class="edge">
<title>element.js&#45;&gt;moduleOne.js</title>
<path fill="none" stroke="#757575" d="M360.2601,-162.4532C369.7079,-162.4532 379.9506,-162.4532 390.0787,-162.4532"/>
<polygon fill="#757575" stroke="#757575" points="390.1351,-165.9533 400.1351,-162.4532 390.135,-158.9533 390.1351,-165.9533"/>
</g>
<!-- first.js -->
<g id="node4" class="node">
<title>first.js</title>
<path fill="none" stroke="#c6c5fe" d="M190.8333,-93.9532C190.8333,-93.9532 152.1667,-93.9532 152.1667,-93.9532 148.3333,-93.9532 144.5,-90.1199 144.5,-86.2865 144.5,-86.2865 144.5,-78.6199 144.5,-78.6199 144.5,-74.7865 148.3333,-70.9532 152.1667,-70.9532 152.1667,-70.9532 190.8333,-70.9532 190.8333,-70.9532 194.6667,-70.9532 198.5,-74.7865 198.5,-78.6199 198.5,-78.6199 198.5,-86.2865 198.5,-86.2865 198.5,-90.1199 194.6667,-93.9532 190.8333,-93.9532"/>
<text text-anchor="middle" x="171.5" y="-78.7532" font-family="Arial" font-size="14.00" fill="#c6c5fe">first.js</text>
</g>
<!-- hooks.js -->
<g id="node5" class="node">
<title>hooks.js</title>
<path fill="none" stroke="#c6c5fe" d="M346.3333,-93.9532C346.3333,-93.9532 290.6667,-93.9532 290.6667,-93.9532 286.8333,-93.9532 283,-90.1199 283,-86.2865 283,-86.2865 283,-78.6199 283,-78.6199 283,-74.7865 286.8333,-70.9532 290.6667,-70.9532 290.6667,-70.9532 346.3333,-70.9532 346.3333,-70.9532 350.1667,-70.9532 354,-74.7865 354,-78.6199 354,-78.6199 354,-86.2865 354,-86.2865 354,-90.1199 350.1667,-93.9532 346.3333,-93.9532"/>
<text text-anchor="middle" x="318.5" y="-78.7532" font-family="Arial" font-size="14.00" fill="#c6c5fe">hooks.js</text>
</g>
<!-- first.js&#45;&gt;hooks.js -->
<g id="edge3" class="edge">
<title>first.js&#45;&gt;hooks.js</title>
<path fill="none" stroke="#757575" d="M198.8051,-82.4532C219.5106,-82.4532 248.4415,-82.4532 272.6732,-82.4532"/>
<polygon fill="#757575" stroke="#757575" points="272.7329,-85.9533 282.7329,-82.4532 272.7328,-78.9533 272.7329,-85.9533"/>
</g>
<!-- hooks.js&#45;&gt;message.js -->
<g id="edge4" class="edge">
<title>hooks.js&#45;&gt;message.js</title>
<path fill="none" stroke="#757575" d="M354.101,-92.7C369.2956,-97.0733 387.2986,-102.255 403.8077,-107.0067"/>
<polygon fill="#757575" stroke="#757575" points="403.2775,-110.4961 413.8555,-109.8987 405.2137,-103.7692 403.2775,-110.4961"/>
</g>
<!-- messageBus.js -->
<g id="node6" class="node">
<title>messageBus.js</title>
<path fill="none" stroke="#cfffac" d="M504.3333,-52.9532C504.3333,-52.9532 403.6667,-52.9532 403.6667,-52.9532 399.8333,-52.9532 396,-49.1199 396,-45.2865 396,-45.2865 396,-37.6199 396,-37.6199 396,-33.7865 399.8333,-29.9532 403.6667,-29.9532 403.6667,-29.9532 504.3333,-29.9532 504.3333,-29.9532 508.1667,-29.9532 512,-33.7865 512,-37.6199 512,-37.6199 512,-45.2865 512,-45.2865 512,-49.1199 508.1667,-52.9532 504.3333,-52.9532"/>
<text text-anchor="middle" x="454" y="-37.7532" font-family="Arial" font-size="14.00" fill="#cfffac">messageBus.js</text>
</g>
<!-- hooks.js&#45;&gt;messageBus.js -->
<g id="edge5" class="edge">
<title>hooks.js&#45;&gt;messageBus.js</title>
<path fill="none" stroke="#757575" d="M354.101,-71.6809C369.9633,-66.8813 388.8863,-61.1555 405.9752,-55.9847"/>
<polygon fill="#757575" stroke="#757575" points="407.2301,-59.2618 415.7879,-53.0155 405.2028,-52.5618 407.2301,-59.2618"/>
</g>
<!-- index.js -->
<g id="node7" class="node">
<title>index.js</title>
<path fill="none" stroke="#c6c5fe" d="M58.3333,-93.9532C58.3333,-93.9532 7.6667,-93.9532 7.6667,-93.9532 3.8333,-93.9532 0,-90.1199 0,-86.2865 0,-86.2865 0,-78.6199 0,-78.6199 0,-74.7865 3.8333,-70.9532 7.6667,-70.9532 7.6667,-70.9532 58.3333,-70.9532 58.3333,-70.9532 62.1667,-70.9532 66,-74.7865 66,-78.6199 66,-78.6199 66,-86.2865 66,-86.2865 66,-90.1199 62.1667,-93.9532 58.3333,-93.9532"/>
<text text-anchor="middle" x="33" y="-78.7532" font-family="Arial" font-size="14.00" fill="#c6c5fe">index.js</text>
</g>
<!-- index.js&#45;&gt;element.js -->
<g id="edge6" class="edge">
<title>index.js&#45;&gt;element.js</title>
<path fill="none" stroke="#757575" d="M43.9346,-94.2079C56.578,-106.9684 78.6621,-126.8114 102,-136.4532 155.2344,-158.4465 221.6651,-163.4812 266.8022,-163.9466"/>
<polygon fill="#757575" stroke="#757575" points="266.9354,-167.447 276.9462,-163.9781 266.9571,-160.447 266.9354,-167.447"/>
</g>
<!-- index.js&#45;&gt;message.js -->
<g id="edge8" class="edge">
<title>index.js&#45;&gt;message.js</title>
<path fill="none" stroke="#757575" d="M65.246,-94.0491C76.7036,-97.6913 89.7891,-101.316 102,-103.4532 205.3403,-121.54 328.1436,-123.474 397.9895,-122.7786"/>
<polygon fill="#757575" stroke="#757575" points="398.361,-126.2744 408.3176,-122.6526 398.2756,-119.2749 398.361,-126.2744"/>
</g>
<!-- index.js&#45;&gt;first.js -->
<g id="edge7" class="edge">
<title>index.js&#45;&gt;first.js</title>
<path fill="none" stroke="#757575" d="M66.1742,-82.4532C86.5755,-82.4532 112.7726,-82.4532 133.9361,-82.4532"/>
<polygon fill="#757575" stroke="#757575" points="134.1795,-85.9533 144.1795,-82.4532 134.1795,-78.9533 134.1795,-85.9533"/>
</g>
<!-- index.js&#45;&gt;messageBus.js -->
<g id="edge9" class="edge">
<title>index.js&#45;&gt;messageBus.js</title>
<path fill="none" stroke="#757575" d="M41.4482,-70.7894C53.1029,-55.8087 75.6835,-30.5397 102,-20.4532 205.9305,19.3809 339.7783,-7.9563 408.6301,-27.1472"/>
<polygon fill="#757575" stroke="#757575" points="407.729,-30.5297 418.3057,-29.9105 409.6514,-23.7988 407.729,-30.5297"/>
</g>
<!-- moduleRenderer.js -->
<g id="node8" class="node">
<title>moduleRenderer.js</title>
<path fill="none" stroke="#c6c5fe" d="M233.3333,-52.9532C233.3333,-52.9532 109.6667,-52.9532 109.6667,-52.9532 105.8333,-52.9532 102,-49.1199 102,-45.2865 102,-45.2865 102,-37.6199 102,-37.6199 102,-33.7865 105.8333,-29.9532 109.6667,-29.9532 109.6667,-29.9532 233.3333,-29.9532 233.3333,-29.9532 237.1667,-29.9532 241,-33.7865 241,-37.6199 241,-37.6199 241,-45.2865 241,-45.2865 241,-49.1199 237.1667,-52.9532 233.3333,-52.9532"/>
<text text-anchor="middle" x="171.5" y="-37.7532" font-family="Arial" font-size="14.00" fill="#c6c5fe">moduleRenderer.js</text>
</g>
<!-- index.js&#45;&gt;moduleRenderer.js -->
<g id="edge10" class="edge">
<title>index.js&#45;&gt;moduleRenderer.js</title>
<path fill="none" stroke="#757575" d="M66.3101,-72.2034C77.6267,-68.751 90.3536,-64.901 102,-61.4532 108.1625,-59.6288 114.6393,-57.7344 121.0583,-55.8709"/>
<polygon fill="#757575" stroke="#757575" points="122.4105,-59.1234 131.0441,-52.9825 120.4654,-52.399 122.4105,-59.1234"/>
</g>
<!-- moduleRenderer.js&#45;&gt;element.js -->
<g id="edge11" class="edge">
<title>moduleRenderer.js&#45;&gt;element.js</title>
<path fill="none" stroke="#757575" d="M225.082,-53.0328C230.6954,-55.3524 236.1237,-58.1297 241,-61.4532 249.1987,-67.0412 284.0262,-114.4826 304.0922,-142.3135"/>
<polygon fill="#757575" stroke="#757575" points="301.3573,-144.5054 310.0359,-150.5825 307.0413,-140.4197 301.3573,-144.5054"/>
</g>
<!-- moduleRenderer.js&#45;&gt;messageBus.js -->
<g id="edge12" class="edge">
<title>moduleRenderer.js&#45;&gt;messageBus.js</title>
<path fill="none" stroke="#757575" d="M241.3315,-41.4532C285.3495,-41.4532 341.9248,-41.4532 385.6557,-41.4532"/>
<polygon fill="#757575" stroke="#757575" points="385.9126,-44.9533 395.9126,-41.4532 385.9126,-37.9533 385.9126,-44.9533"/>
</g>
</g>
</svg>
